# xmcd CD database file
# Copyright (C) 1997 Ti Kan
# 
# Track frame offsets:
#     150
#     17572
#     33782
#     51367
#     64339
#     80965
#     101842
#     116192
#     134870
#     149525
#     163420
#     182755
# 
# Disc length: 2930 seconds
# 
# Revision: 1
# Processed by: cddbd v1.4b41PL1 Copyright (c) Steve Scherf et al.
# Submitted via: DiscPlay 4.0.4
# 
DISCID=be0b700c
DTITLE=Western Flyer - Back In America
DYEAR=1900
DGENRE=
TTITLE0=Back In America
TTITLE1=Lost In You
TTITLE2=Wish You Were Here
TTITLE3=Surrender
TTITLE4=I Know Where You're Comin' From
TTITLE5=What Will You Do With M-E
TTITLE6=New Tin Roof
TTITLE7=She Wants To Be Wanted Again
TTITLE8=Less Than A Minute
TTITLE9=Black And Blue
TTITLE10=Rhythm Of The Highway
TTITLE11=Sixteen Tons
EXTD=
EXTT0=
EXTT1=
EXTT2=
EXTT3=
EXTT4=
EXTT5=
EXTT6=
EXTT7=
EXTT8=
EXTT9=
EXTT10=
EXTT11=
PLAYORDER=
